<?xml version="1.0" encoding="UTF-8"?>
<svg width="24px" height="24px" viewBox="0 0 24 24" version="1.1" xmlns="http://www.w3.org/2000/svg" xmlns:xlink="http://www.w3.org/1999/xlink">
    <defs></defs>
    <g id="Landing" stroke="none" stroke-width="1" fill="none" fill-rule="evenodd">
        <g id="Landing--video-form-THX" transform="translate(-1121.000000, -113.000000)" fill="#FFFFFF">
            <g id="X" transform="translate(1121.000000, 113.000000)">
                <path d="M12.7419613,11.999845 L23.8465869,0.895362802 C24.0511377,0.690814706 24.0511377,0.358579011 23.8465869,0.153411072 C23.6414164,-0.051137024 23.3091764,-0.051137024 23.1046256,0.153411072 L12,11.2578933 L0.895374364,0.153411072 C0.690823627,-0.051137024 0.358583641,-0.051137024 0.153413053,0.153411072 C-0.0511376843,0.358579011 -0.0511376843,0.690814706 0.153413053,0.895362802 L11.2580387,11.999845 L0.153413053,23.1043273 C-0.0511376843,23.3088754 -0.0511376843,23.6411111 0.153413053,23.846279 C0.256308272,23.9485531 0.390196028,24 0.524703634,24 C0.658591389,24 0.793098995,23.9485531 0.895374364,23.846279 L12,12.7417968 L23.1046256,23.846279 C23.206901,23.9485531 23.3414086,24 23.4752964,24 C23.609804,24 23.7443116,23.9485531 23.8465869,23.846279 C24.0511377,23.6411111 24.0511377,23.3088754 23.8465869,23.1043273 L12.7419613,11.999845 Z" id="Fill-1"></path>
            </g>
        </g>
    </g>
</svg>