<?xml version="1.0" encoding="UTF-8"?>
<svg width="156px" height="157px" viewBox="0 0 156 157" version="1.1" xmlns="http://www.w3.org/2000/svg" xmlns:xlink="http://www.w3.org/1999/xlink">
    <!-- Generator: Sketch 42 (36781) - http://www.bohemiancoding.com/sketch -->
    <title>download</title>
    <desc>Created with Sketch.</desc>
    <defs>
        <filter x="-50%" y="-50%" width="200%" height="200%" filterUnits="objectBoundingBox" id="filter-1">
            <feOffset dx="0" dy="20" in="SourceAlpha" result="shadowOffsetOuter1"></feOffset>
            <feGaussianBlur stdDeviation="25" in="shadowOffsetOuter1" result="shadowBlurOuter1"></feGaussianBlur>
            <feColorMatrix values="0 0 0 0 0   0 0 0 0 0   0 0 0 0 0  0 0 0 0.2 0" type="matrix" in="shadowBlurOuter1" result="shadowMatrixOuter1"></feColorMatrix>
            <feMerge>
                <feMergeNode in="shadowMatrixOuter1"></feMergeNode>
                <feMergeNode in="SourceGraphic"></feMergeNode>
            </feMerge>
        </filter>
        <circle id="path-2" cx="30" cy="30" r="30"></circle>
        <filter x="-50%" y="-50%" width="200%" height="200%" filterUnits="objectBoundingBox" id="filter-3">
            <feOffset dx="0" dy="2" in="SourceAlpha" result="shadowOffsetOuter1"></feOffset>
            <feGaussianBlur stdDeviation="4" in="shadowOffsetOuter1" result="shadowBlurOuter1"></feGaussianBlur>
            <feColorMatrix values="0 0 0 0 0   0 0 0 0 0   0 0 0 0 0  0 0 0 0.4 0" type="matrix" in="shadowBlurOuter1"></feColorMatrix>
        </filter>
        <filter x="-50%" y="-50%" width="200%" height="200%" filterUnits="objectBoundingBox" id="filter-4">
            <feOffset dx="0" dy="1" in="SourceAlpha" result="shadowOffsetInner1"></feOffset>
            <feComposite in="shadowOffsetInner1" in2="SourceAlpha" operator="arithmetic" k2="-1" k3="1" result="shadowInnerInner1"></feComposite>
            <feColorMatrix values="0 0 0 0 1   0 0 0 0 1   0 0 0 0 1  0 0 0 0.18 0" type="matrix" in="shadowInnerInner1" result="shadowMatrixInner1"></feColorMatrix>
            <feOffset dx="0" dy="-1" in="SourceAlpha" result="shadowOffsetInner2"></feOffset>
            <feComposite in="shadowOffsetInner2" in2="SourceAlpha" operator="arithmetic" k2="-1" k3="1" result="shadowInnerInner2"></feComposite>
            <feColorMatrix values="0 0 0 0 0   0 0 0 0 0   0 0 0 0 0  0 0 0 0.1 0" type="matrix" in="shadowInnerInner2" result="shadowMatrixInner2"></feColorMatrix>
            <feMerge>
                <feMergeNode in="shadowMatrixInner1"></feMergeNode>
                <feMergeNode in="shadowMatrixInner2"></feMergeNode>
            </feMerge>
        </filter>
    </defs>
    <g id="nagual-MVP" stroke="none" stroke-width="1" fill="none" fill-rule="evenodd">
        <g id="1--Principal" transform="translate(-1105.000000, -76.000000)">
            <g id="download" transform="translate(1153.000000, 104.000000)">
                <g id="ic_plus" filter="url(#filter-1)">
                    <g id="Oval-23">
                        <use fill="black" fill-opacity="1" filter="url(#filter-3)" xlink:href="#path-2"></use>
                        <use fill="#FFFFFF" fill-rule="evenodd" xlink:href="#path-2"></use>
                        <use fill="black" fill-opacity="1" filter="url(#filter-4)" xlink:href="#path-2"></use>
                    </g>
                </g>
                <path d="M33.5463918,18 L33.5463918,18 C38.2061856,18 42,21.7796902 42,26.4268503 C42,26.5507745 41.9793814,26.6540448 41.9793814,26.777969 L41.9793814,26.8605852 C41.9793814,31.3012048 38.371134,34.9156627 33.9381443,34.9156627 C33.4639175,34.9156627 33.0927835,34.5438898 33.0927835,34.0688468 C33.0927835,33.5938038 33.4639175,33.222031 33.9381443,33.222031 C37.4020619,33.222031 40.2268041,30.4337349 40.2886598,26.9845095 L40.2886598,26.8192771 L40.2886598,26.6746988 C40.3092784,26.5920826 40.3092784,26.5094664 40.3092784,26.4268503 C40.3092784,22.6884682 37.2783505,19.6523236 33.5463918,19.6523236 C29.8969072,19.6523236 26.9484536,22.5232358 26.8041237,26.1583477 C26.7835052,26.4888124 26.5979381,26.777969 26.3092784,26.9018933 C26.0206186,27.0258176 25.6907216,26.9845095 25.443299,26.7986231 C24.7628866,26.2822719 23.9587629,26.0137694 23.0927835,26.0550775 C21.2164948,26.1376936 19.6907216,27.8313253 19.6907216,29.7934596 C19.6907216,31.6936317 21.2371134,33.222031 23.1134021,33.222031 C23.5876289,33.222031 23.9587629,33.5938038 23.9587629,34.0688468 C23.9587629,34.5438898 23.5876289,34.9156627 23.1134021,34.9156627 C20.2886598,34.9156627 18,32.6230637 18,29.7934596 C18,26.9018933 20.2061856,24.5060241 23.0103093,24.4027539 C23.7938144,24.3614458 24.556701,24.5060241 25.2783505,24.7951807 C26.0412371,20.8915663 29.4639175,18 33.5463918,18 Z M28.2680412,43.7521515 L22.8247423,38.2994836 C22.4948454,37.9690189 22.4948454,37.4320138 22.8247423,37.1015491 C22.9896907,36.9363167 23.2164948,36.8537005 23.4226804,36.8537005 C23.6494845,36.8537005 23.8556701,36.9363167 24.0206186,37.1015491 L28.0206186,41.1084337 L28.0206186,34.8502582 C28.0206186,34.3752151 28.3917526,34.0034423 28.8659794,34.0034423 C29.3402062,34.0034423 29.7113402,34.3752151 29.7113402,34.8502582 L29.7113402,41.1084337 L33.7319588,37.080895 C34.0618557,36.7504303 34.5979381,36.7504303 34.9278351,37.080895 C35.257732,37.4113597 35.257732,37.9483649 34.9278351,38.2788296 L29.4639175,43.7521515 C29.1340206,44.0826162 28.5979381,44.0826162 28.2680412,43.7521515 Z" id="upload" fill="#1FBCD7"></path>
            </g>
        </g>
    </g>
</svg>