<?xml version="1.0" encoding="UTF-8"?>
<svg width="115px" height="30px" viewBox="0 0 115 30" version="1.1" xmlns="http://www.w3.org/2000/svg" xmlns:xlink="http://www.w3.org/1999/xlink">
    <!-- Generator: Sketch 41.2 (35397) - http://www.bohemiancoding.com/sketch -->
    <title>logo_30</title>
    <desc>Created with Sketch.</desc>
    <defs>
        <linearGradient x1="100%" y1="100%" x2="0%" y2="0%" id="linearGradient-1">
            <stop stop-color="#FD4485" offset="0%"></stop>
            <stop stop-color="#731773" offset="100%"></stop>
        </linearGradient>
    </defs>
    <g id="GUI" stroke="none" stroke-width="1" fill="none" fill-rule="evenodd">
        <g id="Elements" transform="translate(-1171.000000, -636.000000)" fill="url(#linearGradient-1)">
            <g id="logo_30" transform="translate(1171.000000, 636.000000)">
                <path d="M25.6064,4.3934 C22.7734,1.5604 19.0064,0.0004 15.0004,0.0004 C10.9934,0.0004 7.2264,1.5604 4.3934,4.3934 C1.5604,7.2264 0.0004,10.9934 0.0004,15.0004 C0.0004,19.0064 1.5604,22.7734 4.3934,25.6064 C7.2264,28.4394 10.9934,30.0004 15.0004,30.0004 C19.0064,30.0004 22.7734,28.4394 25.6064,25.6064 C28.4394,22.7734 30.0004,19.0064 30.0004,15.0004 C30.0004,10.9934 28.4394,7.2264 25.6064,4.3934 Z M23.8804,23.8804 C21.5084,26.2524 18.3544,27.5584 15.0004,27.5584 C11.6454,27.5584 8.4914,26.2524 6.1194,23.8804 C3.7474,21.5084 2.4414,18.3544 2.4414,15.0004 C2.4414,11.6454 3.7474,8.4914 6.1194,6.1194 C8.4914,3.7474 11.6454,2.0004 15.0004,2.0004 C18.3544,2.0004 21.5084,3.7474 23.8804,6.1194 C26.2524,8.4914 27.5584,11.6454 27.5584,15.0004 C27.5584,18.3544 26.2524,21.5084 23.8804,23.8804 Z M17,16 C17,15 16,14 15,14 C14,14 13,15.048 13,16 L13,19 C13,20 14,21 15,21 C16,21 17,20 17,19 L17,19.615 L17,16 Z M23,14 C22.994,10.211 18.79,7 15,7 C11.211,7 7.007,10.25 7,14 L7,21 C7,22 8,23 9,23 C10,23 11,22 11,21 L11,14 C11,12.11 13.11,11 15,11 C16.89,11 19,12.11 19,14 L19,21 C19,22 20,23 21,23 C22,23 23,22 23,21 L23,14 Z M37.5575033,9.63656602 C38.6155033,8.56656602 39.9115033,8.02056602 41.4485033,8.00056602 C42.9685033,7.98056602 44.2785033,8.49056602 45.3805033,9.53256602 C46.4675033,10.605566 47.0205033,11.902566 47.0395033,13.422566 L47.1385033,20.837566 C47.1435033,21.173566 47.0325033,21.459566 46.8025033,21.694566 C46.5745033,21.929566 46.2915033,22.049566 45.9555033,22.053566 C45.6205033,22.058566 45.3335033,21.946566 45.0985033,21.717566 C44.8645033,21.488566 44.7445033,21.205566 44.7395033,20.869566 L44.6405033,13.454566 C44.6335033,12.894566 44.4875033,12.376566 44.2005033,11.900566 C43.9125033,11.424566 43.5295033,11.049566 43.0445033,10.775566 C42.5625033,10.502566 42.0405033,10.368566 41.4805033,10.376566 C40.9205033,10.383566 40.4025033,10.531566 39.9255033,10.817566 C39.4495033,11.103566 39.0745033,11.488566 38.8005033,11.972566 C38.5285033,12.455566 38.3945033,12.977566 38.4015033,13.537566 L38.4995033,20.952566 C38.5045033,21.288566 38.3925033,21.574566 38.1635033,21.809566 C37.9345033,22.044566 37.6525033,22.164566 37.3165033,22.169566 C36.9805033,22.173566 36.6955033,22.061566 36.4595033,21.832566 C36.2255033,21.603566 36.1045033,21.321566 36.0995033,20.985566 L36.0005033,13.569566 C35.9815033,12.050566 36.5005033,10.738566 37.5575033,9.63656602 Z M56.9882047,8.73014642 L61.9922047,20.3761464 C62.0572047,20.5041464 62.0912047,20.6551464 62.0932047,20.8311464 C62.0972047,21.0711464 62.0332047,21.2961464 61.8992047,21.5051464 C61.7652047,21.7161464 61.5872047,21.8621464 61.3652047,21.9451464 C61.2372047,22.0101464 61.0872047,22.0451464 60.9112047,22.0471464 C60.6702047,22.0501464 60.4452047,21.9851464 60.2362047,21.8521464 C60.0252047,21.7181464 59.8792047,21.5401464 59.7952047,21.3181464 L58.8312047,19.0981464 L53.2152047,19.1731464 L52.3082047,21.4171464 C52.1072047,21.9161464 51.7442047,22.1691464 51.2152047,22.1761464 C50.8792047,22.1801464 50.5932047,22.0721464 50.3582047,21.8511464 C50.1242047,21.6311464 50.0042047,21.3601464 50.0002047,21.0401464 C49.9972047,20.8481464 50.0272047,20.6791464 50.0882047,20.5341464 L54.7812047,8.75914642 C54.9822047,8.26014642 55.3472047,8.00714642 55.8742047,8.00014642 C56.4022047,7.99314642 56.7732047,8.23714642 56.9882047,8.73014642 Z M54.1912047,16.7601464 L57.7902047,16.7121464 L55.9312047,12.3211464 L54.1912047,16.7601464 Z M76.0317014,18.5516076 C75.4057014,19.6156076 74.5527014,20.4716076 73.4727014,21.1176076 C72.3927014,21.7646076 71.2547014,22.0956076 70.0537014,22.1116076 C68.7587014,22.1296076 67.5777014,21.8286076 66.5127014,21.2106076 C65.4497014,20.5926076 64.6017014,19.7476076 63.9717014,18.6766076 C63.3417014,17.6046076 63.0177014,16.4286076 63.0007014,15.1486076 C62.9837014,13.8686076 63.2757014,12.6856076 63.8777014,11.5966076 C64.4787014,10.5086076 65.3037014,9.64160756 66.3497014,8.99560756 C67.3977014,8.34960756 68.5697014,8.01760756 69.8657014,8.00060756 C71.0967014,7.98460756 72.2577014,8.28460756 73.3457014,8.90260756 C74.4347014,9.52060756 75.2987014,10.3526076 75.9367014,11.4006076 C76.0347014,11.5906076 76.0857014,11.7906076 76.0887014,11.9986076 C76.0937014,12.4466076 75.9067014,12.7926076 75.5257014,13.0376076 C75.3507014,13.1526076 75.1517014,13.2106076 74.9277014,13.2136076 C74.7037014,13.2166076 74.5037014,13.1676076 74.3257014,13.0656076 C74.1487014,12.9646076 74.0037014,12.8186076 73.8877014,12.6276076 C73.4467014,11.9296076 72.8757014,11.3806076 72.1737014,10.9826076 C71.4727014,10.5836076 70.7147014,10.3896076 69.8977014,10.4006076 C69.0657014,10.4116076 68.3047014,10.6306076 67.6137014,11.0546076 C66.9237014,11.4806076 66.3797014,12.0516076 65.9807014,12.7696076 C65.5837014,13.4866076 65.3897014,14.2686076 65.4007014,15.1166076 C65.4127014,15.9656076 65.6277014,16.7426076 66.0437014,17.4486076 C66.4607014,18.1556076 67.0197014,18.7116076 67.7207014,19.1176076 C68.4237014,19.5256076 69.1897014,19.7226076 70.0217014,19.7116076 C70.8697014,19.6996076 71.6387014,19.5066076 72.3307014,19.1286076 C73.0207014,18.7516076 73.5547014,18.2486076 73.9307014,17.6196076 L73.9257014,17.1636076 L71.3327014,17.1986076 C70.9967014,17.2026076 70.7107014,17.0906076 70.4757014,16.8616076 C70.2407014,16.6326076 70.1217014,16.3496076 70.1167014,16.0136076 C70.1127014,15.6776076 70.2237014,15.3926076 70.4537014,15.1576076 C70.6817014,14.9226076 70.9647014,14.8026076 71.3007014,14.7986076 L74.9487014,14.7496076 C75.2847014,14.7446076 75.5707014,14.8576076 75.8047014,15.0866076 C76.0407014,15.3146076 76.1607014,15.5976076 76.1647014,15.9336076 L76.1897014,17.8056076 C76.1937014,18.1256076 76.1407014,18.3746076 76.0317014,18.5516076 Z M87.5831043,20.5331034 C86.5241043,21.6031034 85.2291043,22.1491034 83.6921043,22.1691034 C82.1721043,22.1901034 80.8601043,21.6791034 79.7591043,20.6371034 C78.6721043,19.5641034 78.1191043,18.2671034 78.1001043,16.7471034 L78.0001043,9.33210344 C77.9961043,8.99610344 78.1071043,8.71010344 78.3371043,8.47510344 C78.5651043,8.24010344 78.8481043,8.12010344 79.1841043,8.11610344 C79.5201043,8.11110344 79.8061043,8.22310344 80.0411043,8.45210344 C80.2751043,8.68110344 80.3961043,8.96410344 80.3991043,9.30010344 L80.4991043,16.7151034 C80.5061043,17.2751034 80.6521043,17.7941034 80.9391043,18.2701034 C81.2261043,18.7451034 81.6111043,19.1201034 82.0951043,19.3941034 C82.5781043,19.6681034 83.1001043,19.8011034 83.6601043,19.7931034 C84.2201043,19.7861034 84.7381043,19.6391034 85.2141043,19.3521034 C85.6911043,19.0661034 86.0651043,18.6811034 86.3401043,18.1981034 C86.6121043,17.7141034 86.7461043,17.1921034 86.7391043,16.6321034 L86.6401043,9.21710344 C86.6361043,8.88110344 86.7481043,8.59510344 86.9771043,8.36010344 C87.2061043,8.12510344 87.4881043,8.00510344 87.8231043,8.00010344 C88.1591043,7.99610344 88.4441043,8.10810344 88.6801043,8.33710344 C88.9141043,8.56610344 89.0351043,8.84910344 89.0391043,9.18510344 L89.1391043,16.6001034 C89.1581043,18.1201034 88.6391043,19.4311034 87.5831043,20.5331034 Z M97.9892047,8.73014642 L102.992205,20.3761464 C103.057205,20.5031464 103.091205,20.6551464 103.093205,20.8311464 C103.097205,21.0711464 103.033205,21.2961464 102.899205,21.5051464 C102.765205,21.7161464 102.587205,21.8621464 102.365205,21.9451464 C102.237205,22.0101464 102.087205,22.0451464 101.911205,22.0471464 C101.670205,22.0501464 101.445205,21.9851464 101.236205,21.8521464 C101.025205,21.7181464 100.879205,21.5401464 100.795205,21.3181464 L99.8312047,19.0981464 L94.2152047,19.1731464 L93.3082047,21.4171464 C93.1072047,21.9161464 92.7442047,22.1691464 92.2152047,22.1761464 C91.8792047,22.1801464 91.5932047,22.0721464 91.3582047,21.8511464 C91.1242047,21.6311464 91.0042047,21.3601464 91.0002047,21.0401464 C90.9972047,20.8481464 91.0272047,20.6791464 91.0882047,20.5341464 L95.7812047,8.75914642 C95.9822047,8.26014642 96.3472047,8.00714642 96.8752047,8.00014642 C97.4032047,7.99314642 97.7742047,8.23714642 97.9892047,8.73014642 Z M95.1912047,16.7601464 L98.7912047,16.7121464 L96.9322047,12.3211464 L95.1912047,16.7601464 Z M114.3809,19.8779 C114.6089,20.1309 114.7249,20.4179 114.7289,20.7369 C114.7339,21.0739 114.6199,21.3589 114.3929,21.5939 C114.1629,21.8289 113.8799,21.9489 113.5439,21.9529 L106.8249,22.0429 C106.5049,22.0469 106.2249,21.9349 105.9819,21.7059 C105.7369,21.4779 105.6139,21.1949 105.6099,20.8579 L105.4539,9.2439 C105.4499,8.9079 105.5669,8.6219 105.8039,8.3869 C106.0409,8.1519 106.3179,8.0319 106.6389,8.0279 C106.9749,8.0239 107.2609,8.1359 107.4959,8.3639 C107.7309,8.5929 107.8509,8.8759 107.8549,9.2119 L107.9939,19.6269 L113.5129,19.5529 C113.8329,19.5489 114.1219,19.6569 114.3809,19.8779 Z" id="Combined-Shape"></path>
            </g>
        </g>
    </g>
</svg>