<?xml version="1.0" encoding="UTF-8"?>
<svg width="176px" height="48px" viewBox="0 0 176 48" version="1.1" xmlns="http://www.w3.org/2000/svg" xmlns:xlink="http://www.w3.org/1999/xlink">
    <!-- Generator: Sketch 41.2 (35397) - http://www.bohemiancoding.com/sketch -->
    <title>logo</title>
    <desc>Created with Sketch.</desc>
    <defs>
        <linearGradient x1="100%" y1="100%" x2="0%" y2="0%" id="linearGradient-1">
            <stop stop-color="#FD4485" offset="0%"></stop>
            <stop stop-color="#731773" offset="100%"></stop>
        </linearGradient>
    </defs>
    <g id="GUI" stroke="none" stroke-width="1" fill="none" fill-rule="evenodd">
        <g id="Elements" transform="translate(-1171.000000, -687.000000)" fill="url(#linearGradient-1)">
            <g id="logo_48" transform="translate(1171.000000, 687.000000)">
                <g id="logo">
                    <path d="M7.029,40.9709 C2.496,36.4379 0,30.4109 0,23.9999 C0,17.5889 2.496,11.5629 7.029,7.0299 C11.562,2.4969 17.589,-0.0001 24,-0.0001 C30.411,-0.0001 36.438,2.4969 40.971,7.0299 C45.504,11.5629 48,17.5889 48,23.9999 C48,30.4109 45.504,36.4379 40.971,40.9709 C36.438,45.5039 30.411,47.9999 24,47.9999 C17.589,47.9999 11.562,45.5039 7.029,40.9709 Z M9.791,9.7909 C5.996,13.5869 3.906,18.6329 3.906,23.9999 C3.906,29.3669 5.996,34.4139 9.791,38.2089 C13.587,42.0039 18.633,44.0939 24,44.0939 C29.367,44.0939 34.413,42.0039 38.209,38.2089 C42.004,34.4139 44.094,29.3669 44.094,23.9999 C44.094,18.6329 42.004,13.5869 38.209,9.7909 C34.413,5.9959 29.367,3.9059 24,3.9059 C18.633,3.9059 13.587,5.9959 9.791,9.7909 Z M24,22.7389 C22,22.7449 21,23.7449 21,25.7449 L21,31.7449 C21,33.7449 22.593,34.7589 24,34.7589 C25.407,34.7589 27,33.7449 27,31.7449 L27,25.7449 C27,23.7449 26,22.7329 24,22.7389 Z M36,22.7448 C36,16.7448 30.069,10.7588 24,10.7588 C17.983,10.7588 12,16.7428 12,22.7448 L12,33.7448 C12,35.7448 13,36.7448 15,36.7448 C17,36.7448 18,35.7448 18,33.7448 L18,22.7448 C18,19.7448 20.976,16.7378 24,16.7378 C27.024,16.7378 30,19.7208 30,22.7448 L30,33.7448 C30,35.7448 31.535,36.7448 33,36.7448 C34.465,36.7448 36,35.7448 36,33.7448 L36,22.7448 Z M60.5723,17.7163 C62.1793,16.1323 64.1353,15.3403 66.4393,15.3403 C68.7203,15.3403 70.6763,16.1323 72.3073,17.7163 C73.9163,19.3483 74.7193,21.3043 74.7193,23.5843 L74.7193,34.7083 C74.7193,35.2123 74.5463,35.6383 74.1983,35.9863 C73.8503,36.3343 73.4243,36.5083 72.9203,36.5083 C72.4163,36.5083 71.9903,36.3343 71.6413,35.9863 C71.2943,35.6383 71.1203,35.2123 71.1203,34.7083 L71.1203,23.5843 C71.1203,22.7443 70.9103,21.9643 70.4903,21.2443 C70.0703,20.5243 69.5003,19.9543 68.7803,19.5343 C68.0593,19.1143 67.2803,18.9043 66.4393,18.9043 C65.5993,18.9043 64.8203,19.1143 64.0993,19.5343 C63.3803,19.9543 62.8103,20.5243 62.3893,21.2443 C61.9703,21.9643 61.7593,22.7443 61.7593,23.5843 L61.7593,34.7083 C61.7593,35.2123 61.5863,35.6383 61.2383,35.9863 C60.8903,36.3343 60.4643,36.5083 59.9603,36.5083 C59.4563,36.5083 59.0303,36.3343 58.6813,35.9863 C58.3343,35.6383 58.1603,35.2123 58.1603,34.7083 L58.1603,23.5843 C58.1603,21.3043 58.9643,19.3483 60.5723,17.7163 Z M88.6158,16.0921 L95.8878,33.6601 C95.9838,33.8521 96.0318,34.0801 96.0318,34.3441 C96.0318,34.7041 95.9298,35.0401 95.7258,35.3521 C95.5218,35.6641 95.2518,35.8801 94.9158,36.0001 C94.7238,36.0961 94.4958,36.1441 94.2318,36.1441 C93.8718,36.1441 93.5348,36.0411 93.2238,35.8381 C92.9118,35.6341 92.6958,35.3641 92.5758,35.0281 L91.1718,31.6801 L82.7478,31.6801 L81.3438,35.0281 C81.0308,35.7721 80.4798,36.1441 79.6878,36.1441 C79.1838,36.1441 78.7578,35.9761 78.4098,35.6401 C78.0618,35.3041 77.8878,34.8961 77.8878,34.4161 C77.8878,34.1281 77.9358,33.8761 78.0318,33.6601 L85.3038,16.0921 C85.6148,15.3481 86.1678,14.9761 86.9598,14.9761 C87.7518,14.9761 88.3038,15.3481 88.6158,16.0921 Z M84.2598,28.0801 L89.6598,28.0801 L86.9598,21.4561 L84.2598,28.0801 Z M117.3438,30.9238 C116.3838,32.5078 115.0878,33.7748 113.4558,34.7218 C111.8228,35.6708 110.1078,36.1438 108.3078,36.1438 C106.3638,36.1438 104.5998,35.6708 103.0158,34.7218 C101.4318,33.7748 100.1778,32.4898 99.2538,30.8698 C98.3288,29.2498 97.8678,27.4808 97.8678,25.5598 C97.8678,23.6398 98.3288,21.8698 99.2538,20.2498 C100.1778,18.6298 101.4318,17.3458 103.0158,16.3978 C104.5998,15.4498 106.3638,14.9758 108.3078,14.9758 C110.1558,14.9758 111.8898,15.4498 113.5098,16.3978 C115.1298,17.3458 116.4068,18.6118 117.3438,20.1958 C117.4878,20.4838 117.5598,20.7838 117.5598,21.0958 C117.5598,21.7678 117.2718,22.2838 116.6958,22.6438 C116.4318,22.8118 116.1318,22.8958 115.7958,22.8958 C115.4588,22.8958 115.1588,22.8188 114.8958,22.6618 C114.6308,22.5068 114.4148,22.2838 114.2478,21.9958 C113.5998,20.9408 112.7538,20.1058 111.7098,19.4938 C110.6658,18.8818 109.5318,18.5758 108.3078,18.5758 C107.0598,18.5758 105.9138,18.8878 104.8698,19.5118 C103.8258,20.1358 102.9978,20.9828 102.3858,22.0498 C101.7738,23.1178 101.4678,24.2878 101.4678,25.5598 C101.4678,26.8328 101.7738,28.0028 102.3858,29.0698 C102.9978,30.1378 103.8258,30.9848 104.8698,31.6078 C105.9138,32.2328 107.0598,32.5438 108.3078,32.5438 C109.5788,32.5438 110.7378,32.2688 111.7818,31.7158 C112.8258,31.1638 113.6358,30.4198 114.2118,29.4838 L114.2118,28.7998 L110.3228,28.7998 C109.8198,28.7998 109.3938,28.6258 109.0458,28.2778 C108.6978,27.9298 108.5238,27.5038 108.5238,26.9998 C108.5238,26.4958 108.6978,26.0698 109.0458,25.7218 C109.3938,25.3748 109.8198,25.1998 110.3228,25.1998 L115.7958,25.1998 C116.2998,25.1998 116.7258,25.3748 117.0728,25.7218 C117.4208,26.0698 117.5958,26.4958 117.5958,26.9998 L117.5958,29.8078 C117.5958,30.2888 117.5118,30.6598 117.3438,30.9238 Z M135.2354,33.7681 C133.6284,35.3521 131.6724,36.1441 129.3684,36.1441 C127.0874,36.1441 125.1314,35.3521 123.5004,33.7681 C121.8914,32.1361 121.0884,30.1801 121.0884,27.9001 L121.0884,16.7761 C121.0884,16.2721 121.2614,15.8461 121.6094,15.4981 C121.9574,15.1501 122.3834,14.9761 122.8874,14.9761 C123.3914,14.9761 123.8174,15.1501 124.1664,15.4981 C124.5134,15.8461 124.6874,16.2721 124.6874,16.7761 L124.6874,27.9001 C124.6874,28.7401 124.8974,29.5201 125.3174,30.2401 C125.7374,30.9601 126.3074,31.5301 127.0274,31.9501 C127.7484,32.3701 128.5274,32.5801 129.3684,32.5801 C130.2084,32.5801 130.9874,32.3701 131.7084,31.9501 C132.4274,31.5301 132.9974,30.9601 133.4184,30.2401 C133.8374,29.5201 134.0484,28.7401 134.0484,27.9001 L134.0484,16.7761 C134.0484,16.2721 134.2214,15.8461 134.5694,15.4981 C134.9174,15.1501 135.3434,14.9761 135.8474,14.9761 C136.3514,14.9761 136.7774,15.1501 137.1264,15.4981 C137.4734,15.8461 137.6474,16.2721 137.6474,16.7761 L137.6474,27.9001 C137.6474,30.1801 136.8434,32.1361 135.2354,33.7681 Z M151.0025,16.0921 L158.2745,33.6601 C158.3705,33.8521 158.4185,34.0801 158.4185,34.3441 C158.4185,34.7041 158.3165,35.0401 158.1125,35.3521 C157.9085,35.6641 157.6385,35.8801 157.3025,36.0001 C157.1105,36.0961 156.8825,36.1441 156.6185,36.1441 C156.2585,36.1441 155.9215,36.0411 155.6105,35.8381 C155.2985,35.6341 155.0825,35.3641 154.9625,35.0281 L153.5585,31.6801 L145.1345,31.6801 L143.7305,35.0281 C143.4175,35.7721 142.8665,36.1441 142.0745,36.1441 C141.5705,36.1441 141.1445,35.9761 140.7965,35.6401 C140.4485,35.3041 140.2745,34.8961 140.2745,34.4161 C140.2745,34.1281 140.3225,33.8761 140.4185,33.6601 L147.6905,16.0921 C148.0015,15.3481 148.5545,14.9761 149.3465,14.9761 C150.1385,14.9761 150.6905,15.3481 151.0025,16.0921 Z M146.6465,28.0801 L152.0465,28.0801 L149.3465,21.4561 L146.6465,28.0801 Z M175.123,32.9038 C175.459,33.2878 175.627,33.7198 175.627,34.1998 C175.627,34.7038 175.452,35.1308 175.104,35.4778 C174.757,35.8258 174.331,35.9998 173.827,35.9998 L163.747,35.9998 C163.267,35.9998 162.847,35.8258 162.486,35.4778 C162.127,35.1308 161.946,34.7038 161.946,34.1998 L161.946,16.7758 C161.946,16.2718 162.127,15.8458 162.486,15.4978 C162.847,15.1508 163.267,14.9758 163.747,14.9758 C164.251,14.9758 164.677,15.1508 165.024,15.4978 C165.372,15.8458 165.547,16.2718 165.547,16.7758 L165.547,32.3998 L173.827,32.3998 C174.307,32.3998 174.738,32.5688 175.123,32.9038 Z" id="Combined-Shape"></path>
                </g>
            </g>
        </g>
    </g>
</svg>