<?xml version="1.0" encoding="UTF-8"?>
<svg width="20px" height="24px" viewBox="0 0 20 24" version="1.1" xmlns="http://www.w3.org/2000/svg" xmlns:xlink="http://www.w3.org/1999/xlink">
    <!-- Generator: Sketch 41.2 (35397) - http://www.bohemiancoding.com/sketch -->
    <title>report</title>
    <desc>Created with Sketch.</desc>
    <defs></defs>
    <g id="nagual-MVP" stroke="none" stroke-width="1" fill="none" fill-rule="evenodd">
        <g id="3--FilesStatus" transform="translate(-1073.000000, -367.000000)" fill="#9B9B9B">
            <path d="M1087.39069,367 L1078.01956,367 C1077.58059,367 1077.23705,367.342857 1077.23705,367.780952 L1077.23705,368.866667 L1073.78252,368.866667 C1073.34354,368.866667 1073,369.209524 1073,369.647619 L1073,390.219048 C1073,390.657143 1073.34354,391 1073.78252,391 L1091.2651,391 C1091.70407,391 1092.04762,390.657143 1092.04762,390.219048 L1092.04762,369.647619 C1092.04762,369.209524 1091.70407,368.866667 1091.2651,368.866667 L1088.1732,368.866667 L1088.1732,367.780952 C1088.1732,367.342857 1087.82966,367 1087.39069,367 L1087.39069,367 Z M1078.80208,369.647619 L1078.80208,368.561905 L1086.60817,368.561905 L1086.60817,369.647619 L1086.60817,371.019048 L1078.80208,371.019048 L1078.80208,369.647619 L1078.80208,369.647619 Z M1090.48258,370.428571 L1090.48258,389.438095 L1074.56503,389.438095 L1074.56503,370.428571 L1077.23705,370.428571 L1077.23705,371.8 C1077.23705,372.238095 1077.58059,372.580952 1078.01956,372.580952 L1087.39069,372.580952 C1087.82966,372.580952 1088.1732,372.238095 1088.1732,371.8 L1088.1732,370.428571 L1090.48258,370.428571 Z M1088.34498,380.52381 L1077.06527,380.52381 C1076.6263,380.52381 1076.28276,380.866667 1076.28276,381.304762 C1076.28276,381.742857 1076.6263,382.085714 1077.06527,382.085714 L1088.34498,382.085714 C1088.78395,382.085714 1089.12749,381.742857 1089.12749,381.304762 C1089.12749,380.866667 1088.78395,380.52381 1088.34498,380.52381 Z M1082.71467,384.295238 L1077.06527,384.295238 C1076.6263,384.295238 1076.28276,384.638095 1076.28276,385.07619 C1076.28276,385.514286 1076.6263,385.857143 1077.06527,385.857143 L1082.69558,385.857143 C1083.13455,385.857143 1083.4781,385.514286 1083.4781,385.07619 C1083.4781,384.638095 1083.13455,384.295238 1082.71467,384.295238 Z M1076.28276,377.514286 C1076.28276,377.952381 1076.6263,378.295238 1077.06527,378.295238 L1088.34498,378.295238 C1088.78395,378.295238 1089.12749,377.952381 1089.12749,377.514286 C1089.12749,377.07619 1088.78395,376.733333 1088.34498,376.733333 L1077.06527,376.733333 C1076.6263,376.733333 1076.28276,377.095238 1076.28276,377.514286 L1076.28276,377.514286 Z" id="report"></path>
        </g>
    </g>
</svg>