<?xml version="1.0" encoding="UTF-8"?>
<svg width="24px" height="24px" viewBox="0 0 24 24" version="1.1" xmlns="http://www.w3.org/2000/svg" xmlns:xlink="http://www.w3.org/1999/xlink">
    <!-- Generator: Sketch 41.2 (35397) - http://www.bohemiancoding.com/sketch -->
    <title>upload</title>
    <desc>Created with Sketch.</desc>
    <defs></defs>
    <g id="GUI" stroke="none" stroke-width="1" fill="none" fill-rule="evenodd">
        <g id="Elements" transform="translate(-932.000000, -967.000000)" fill="#FD4485">
            <g id="upload" transform="translate(914.000000, 949.000000)">
                <path d="M33.5463918,18 C29.4639175,18 26.0412371,20.8915663 25.2783505,24.7951807 C24.556701,24.5060241 23.7938144,24.3614458 23.0103093,24.4027539 C20.2061856,24.5060241 18,26.9018933 18,29.7934596 C18,32.6230637 20.2886598,34.9156627 23.1134021,34.9156627 C23.5876289,34.9156627 23.9587629,34.5438898 23.9587629,34.0688468 C23.9587629,33.5938038 23.5876289,33.222031 23.1134021,33.222031 C21.2371134,33.222031 19.6907216,31.6936317 19.6907216,29.7934596 C19.6907216,27.8313253 21.2164948,26.1376936 23.0927835,26.0550775 C23.9587629,26.0137694 24.7628866,26.2822719 25.443299,26.7986231 C25.6907216,26.9845095 26.0206186,27.0258176 26.3092784,26.9018933 C26.5979381,26.777969 26.7835052,26.4888124 26.8041237,26.1583477 C26.9484536,22.5232358 29.8969072,19.6523236 33.5463918,19.6523236 C37.2783505,19.6523236 40.3092784,22.6884682 40.3092784,26.4268503 C40.3092784,26.5094664 40.3092784,26.5920826 40.2886598,26.6746988 L40.2886598,26.8192771 L40.2886598,26.9845095 C40.2268041,30.4337349 37.4020619,33.222031 33.9381443,33.222031 C33.4639175,33.222031 33.0927835,33.5938038 33.0927835,34.0688468 C33.0927835,34.5438898 33.4639175,34.9156627 33.9381443,34.9156627 C38.371134,34.9156627 41.9793814,31.3012048 41.9793814,26.8605852 L41.9793814,26.777969 C41.9793814,26.6540448 42,26.5507745 42,26.4268503 C42,21.7796902 38.2061856,18 33.5463918,18 L33.5463918,18 Z M29.4845361,32.2512909 C29.1546392,31.9208262 28.6185567,31.9208262 28.2886598,32.2512909 L22.8247423,37.7246127 C22.4948454,38.0550775 22.4948454,38.5920826 22.8247423,38.9225473 C23.1546392,39.253012 23.6907216,39.253012 24.0206186,38.9225473 L28.0412371,34.8950086 L28.0412371,41.1531842 C28.0412371,41.6282272 28.4123711,42 28.8865979,42 C29.3608247,42 29.7319588,41.6282272 29.7319588,41.1531842 L29.7319588,34.8950086 L33.7319588,38.9018933 C33.8969072,39.0671256 34.1030928,39.1497418 34.3298969,39.1497418 C34.5360825,39.1497418 34.7628866,39.0671256 34.9278351,38.9018933 C35.257732,38.5714286 35.257732,38.0344234 34.9278351,37.7039587 L29.4845361,32.2512909 Z"></path>
            </g>
        </g>
    </g>
</svg>