<?xml version="1.0" encoding="UTF-8"?>
<svg width="190px" height="62px" viewBox="0 0 190 62" version="1.1" xmlns="http://www.w3.org/2000/svg" xmlns:xlink="http://www.w3.org/1999/xlink">
    <defs>
        <path d="M37.029,56.971 C32.496,52.438 30,46.411 30,40 C30,33.589 32.496,27.563 37.029,23.03 C41.562,18.497 47.589,16 54,16 C60.411,16 66.438,18.497 70.971,23.03 C75.504,27.563 78,33.589 78,40 C78,46.411 75.504,52.438 70.971,56.971 C66.438,61.504 60.411,64 54,64 C47.589,64 41.562,61.504 37.029,56.971 Z M39.791,25.791 C35.996,29.587 33.906,34.633 33.906,40 C33.906,45.367 35.996,50.414 39.791,54.209 C43.587,58.004 48.633,60.094 54,60.094 C59.367,60.094 64.413,58.004 68.209,54.209 C72.004,50.414 74.094,45.367 74.094,40 C74.094,34.633 72.004,29.587 68.209,25.791 C64.413,21.996 59.367,19.906 54,19.906 C48.633,19.906 43.587,21.996 39.791,25.791 Z M54,38.739 C56,38.733 57,39.745 57,41.745 L57,47.745 C57,49.745 55.407,50.759 54,50.759 C52.593,50.759 51,49.745 51,47.745 L51,41.745 C51,39.745 52,38.745 54,38.739 Z M66,38.7449 L66,49.7449 C66,51.7449 64.465,52.7449 63,52.7449 C61.535,52.7449 60,51.7449 60,49.7449 L60,38.7449 C60,35.7209 57.024,32.7379 54,32.7379 C50.976,32.7379 48,35.7449 48,38.7449 L48,49.7449 C48,51.7449 47,52.7449 45,52.7449 C43,52.7449 42,51.7449 42,49.7449 L42,38.7449 C42,32.7429 47.983,26.7589 54,26.7589 C60.069,26.7589 66,32.7449 66,38.7449 Z M90.5723,33.7164 C92.1793,32.1324 94.1353,31.3404 96.4393,31.3404 C98.7203,31.3404 100.6763,32.1324 102.3073,33.7164 C103.9163,35.3484 104.7193,37.3044 104.7193,39.5844 L104.7193,50.7084 C104.7193,51.2124 104.5463,51.6384 104.1983,51.9864 C103.8503,52.3344 103.4243,52.5084 102.9203,52.5084 C102.4163,52.5084 101.9903,52.3344 101.6413,51.9864 C101.2943,51.6384 101.1203,51.2124 101.1203,50.7084 L101.1203,39.5844 C101.1203,38.7444 100.9103,37.9644 100.4903,37.2444 C100.0703,36.5244 99.5003,35.9544 98.7803,35.5344 C98.0593,35.1144 97.2803,34.9044 96.4393,34.9044 C95.5993,34.9044 94.8203,35.1144 94.0993,35.5344 C93.3803,35.9544 92.8103,36.5244 92.3893,37.2444 C91.9703,37.9644 91.7593,38.7444 91.7593,39.5844 L91.7593,50.7084 C91.7593,51.2124 91.5863,51.6384 91.2383,51.9864 C90.8903,52.3344 90.4643,52.5084 89.9603,52.5084 C89.4563,52.5084 89.0303,52.3344 88.6813,51.9864 C88.3343,51.6384 88.1603,51.2124 88.1603,50.7084 L88.1603,39.5844 C88.1603,37.3044 88.9643,35.3484 90.5723,33.7164 Z M118.6158,32.0922 L125.8878,49.6602 C125.9838,49.8522 126.0318,50.0802 126.0318,50.3442 C126.0318,50.7042 125.9298,51.0402 125.7258,51.3522 C125.5218,51.6642 125.2518,51.8802 124.9158,52.0002 C124.7238,52.0962 124.4958,52.1442 124.2318,52.1442 C123.8718,52.1442 123.5348,52.0412 123.2238,51.8382 C122.9118,51.6342 122.6958,51.3642 122.5758,51.0282 L121.1718,47.6802 L112.7478,47.6802 L111.3438,51.0282 C111.0308,51.7722 110.4798,52.1442 109.6878,52.1442 C109.1838,52.1442 108.7578,51.9762 108.4098,51.6402 C108.0618,51.3042 107.8878,50.8962 107.8878,50.4162 C107.8878,50.1282 107.9358,49.8762 108.0318,49.6602 L115.3038,32.0922 C115.6148,31.3482 116.1678,30.9762 116.9598,30.9762 C117.7518,30.9762 118.3038,31.3482 118.6158,32.0922 Z M114.2598,44.0802 L119.6598,44.0802 L116.9598,37.4562 L114.2598,44.0802 Z M147.3438,46.9239 C146.3838,48.5079 145.0878,49.7749 143.4558,50.7219 C141.8228,51.6709 140.1078,52.1439 138.3078,52.1439 C136.3638,52.1439 134.5998,51.6709 133.0158,50.7219 C131.4318,49.7749 130.1778,48.4899 129.2538,46.8699 C128.3288,45.2499 127.8678,43.4809 127.8678,41.5599 C127.8678,39.6399 128.3288,37.8699 129.2538,36.2499 C130.1778,34.6299 131.4318,33.3459 133.0158,32.3979 C134.5998,31.4499 136.3638,30.9759 138.3078,30.9759 C140.1558,30.9759 141.8898,31.4499 143.5098,32.3979 C145.1298,33.3459 146.4068,34.6119 147.3438,36.1959 C147.4878,36.4839 147.5598,36.7839 147.5598,37.0959 C147.5598,37.7679 147.2718,38.2839 146.6958,38.6439 C146.4318,38.8119 146.1318,38.8959 145.7958,38.8959 C145.4588,38.8959 145.1588,38.8189 144.8958,38.6619 C144.6308,38.5069 144.4148,38.2839 144.2478,37.9959 C143.5998,36.9409 142.7538,36.1059 141.7098,35.4939 C140.6658,34.8819 139.5318,34.5759 138.3078,34.5759 C137.0598,34.5759 135.9138,34.8879 134.8698,35.5119 C133.8258,36.1359 132.9978,36.9829 132.3858,38.0499 C131.7738,39.1179 131.4678,40.2879 131.4678,41.5599 C131.4678,42.8329 131.7738,44.0029 132.3858,45.0699 C132.9978,46.1379 133.8258,46.9849 134.8698,47.6079 C135.9138,48.2329 137.0598,48.5439 138.3078,48.5439 C139.5788,48.5439 140.7378,48.2689 141.7818,47.7159 C142.8258,47.1639 143.6358,46.4199 144.2118,45.4839 L144.2118,44.7999 L140.3228,44.7999 C139.8198,44.7999 139.3938,44.6259 139.0458,44.2779 C138.6978,43.9299 138.5238,43.5039 138.5238,42.9999 C138.5238,42.4959 138.6978,42.0699 139.0458,41.7219 C139.3938,41.3749 139.8198,41.1999 140.3228,41.1999 L145.7958,41.1999 C146.2998,41.1999 146.7258,41.3749 147.0728,41.7219 C147.4208,42.0699 147.5958,42.4959 147.5958,42.9999 L147.5958,45.8079 C147.5958,46.2889 147.5118,46.6599 147.3438,46.9239 Z M165.2354,49.7682 C163.6284,51.3522 161.6724,52.1442 159.3684,52.1442 C157.0874,52.1442 155.1314,51.3522 153.5004,49.7682 C151.8914,48.1362 151.0884,46.1802 151.0884,43.9002 L151.0884,32.7762 C151.0884,32.2722 151.2614,31.8462 151.6094,31.4982 C151.9574,31.1502 152.3834,30.9762 152.8874,30.9762 C153.3914,30.9762 153.8174,31.1502 154.1664,31.4982 C154.5134,31.8462 154.6874,32.2722 154.6874,32.7762 L154.6874,43.9002 C154.6874,44.7402 154.8974,45.5202 155.3174,46.2402 C155.7374,46.9602 156.3074,47.5302 157.0274,47.9502 C157.7484,48.3702 158.5274,48.5802 159.3684,48.5802 C160.2084,48.5802 160.9874,48.3702 161.7084,47.9502 C162.4274,47.5302 162.9974,46.9602 163.4184,46.2402 C163.8374,45.5202 164.0484,44.7402 164.0484,43.9002 L164.0484,32.7762 C164.0484,32.2722 164.2214,31.8462 164.5694,31.4982 C164.9174,31.1502 165.3434,30.9762 165.8474,30.9762 C166.3514,30.9762 166.7774,31.1502 167.1264,31.4982 C167.4734,31.8462 167.6474,32.2722 167.6474,32.7762 L167.6474,43.9002 C167.6474,46.1802 166.8434,48.1362 165.2354,49.7682 Z M181.0025,32.0922 L188.2745,49.6602 C188.3705,49.8522 188.4185,50.0802 188.4185,50.3442 C188.4185,50.7042 188.3165,51.0402 188.1125,51.3522 C187.9085,51.6642 187.6385,51.8802 187.3025,52.0002 C187.1105,52.0962 186.8825,52.1442 186.6185,52.1442 C186.2585,52.1442 185.9215,52.0412 185.6105,51.8382 C185.2985,51.6342 185.0825,51.3642 184.9625,51.0282 L183.5585,47.6802 L175.1345,47.6802 L173.7305,51.0282 C173.4175,51.7722 172.8665,52.1442 172.0745,52.1442 C171.5705,52.1442 171.1445,51.9762 170.7965,51.6402 C170.4485,51.3042 170.2745,50.8962 170.2745,50.4162 C170.2745,50.1282 170.3225,49.8762 170.4185,49.6602 L177.6905,32.0922 C178.0015,31.3482 178.5545,30.9762 179.3465,30.9762 C180.1385,30.9762 180.6905,31.3482 181.0025,32.0922 Z M176.6465,44.0802 L182.0465,44.0802 L179.3465,37.4562 L176.6465,44.0802 Z M205.123,48.9039 C205.459,49.2879 205.627,49.7199 205.627,50.1999 C205.627,50.7039 205.452,51.1309 205.104,51.4779 C204.757,51.8259 204.331,51.9999 203.827,51.9999 L193.747,51.9999 C193.267,51.9999 192.847,51.8259 192.486,51.4779 C192.127,51.1309 191.946,50.7039 191.946,50.1999 L191.946,32.7759 C191.946,32.2719 192.127,31.8459 192.486,31.4979 C192.847,31.1509 193.267,30.9759 193.747,30.9759 C194.251,30.9759 194.677,31.1509 195.024,31.4979 C195.372,31.8459 195.547,32.2719 195.547,32.7759 L195.547,48.3999 L203.827,48.3999 C204.307,48.3999 204.738,48.5689 205.123,48.9039 Z" id="path-1"></path>
        <filter x="-6.0%" y="-21.9%" width="112.0%" height="143.8%" filterUnits="objectBoundingBox" id="filter-2">
            <feOffset dx="0" dy="0" in="SourceAlpha" result="shadowOffsetOuter1"></feOffset>
            <feGaussianBlur stdDeviation="3.5" in="shadowOffsetOuter1" result="shadowBlurOuter1"></feGaussianBlur>
            <feColorMatrix values="0 0 0 0 0   0 0 0 0 0   0 0 0 0 0  0 0 0 0.5 0" type="matrix" in="shadowBlurOuter1"></feColorMatrix>
        </filter>
    </defs>
    <g id="Landing-page" stroke="none" stroke-width="1" fill="none" fill-rule="evenodd">
        <g id="Landing-" transform="translate(-23.000000, -9.000000)">
            <g id="header">
                <g id="logo-w">
                    <use fill="black" fill-opacity="1" filter="url(#filter-2)" xlink:href="#path-1"></use>
                    <use fill="#FFFFFF" fill-rule="evenodd" xlink:href="#path-1"></use>
                </g>
            </g>
        </g>
    </g>
</svg>