<?xml version="1.0" encoding="UTF-8"?>
<svg width="165px" height="45px" viewBox="0 0 165 45" version="1.1" xmlns="http://www.w3.org/2000/svg" xmlns:xlink="http://www.w3.org/1999/xlink">
    <defs></defs>
    <g id="Landing-page" stroke="none" stroke-width="1" fill="none" fill-rule="evenodd">
        <g id="Landing-" transform="translate(-100.000000, -3412.000000)" fill-rule="nonzero" fill="#FFFFFF">
            <g id="footer" transform="translate(0.000000, 3326.000000)">
                <g id="SE-logoazul" transform="translate(100.000000, 86.000000)">
                    <g id="Capa_1">
                        <g id="Group">
                            <path d="M162.69,44.7 L152.07,44.7 C150.84,44.7 149.85,43.8 149.85,42.51 C149.85,41.49 150.81,40.56 152.07,40.56 L162.69,40.56 C163.92,40.56 164.91,41.46 164.91,42.51 C164.91,43.8 163.92,44.7 162.69,44.7" id="Shape"></path>
                            <path d="M6.99,23.73 C5.01,23.73 3.21,23.04 2.31,22.53 C0.69,21.54 0.36,20.79 0.3,20.43 C0.21,19.59 0.84,18.84 1.62,18.72 C2.13,18.66 2.67,18.99 3.06,19.32 C4.29,20.4 5.67,20.91 6.96,20.91 C8.79,20.91 10.23,20.34 10.23,18.87 C10.23,17.67 9.18,17.1 6.48,16.44 C2.64,15.48 0.81,14.19 0.81,11.58 C0.81,8.82 3.27,6.75 6.96,6.75 C10.38,6.75 12.45,8.61 12.72,8.88 C13.02,9.18 13.14,9.54 13.14,9.84 C13.14,10.44 12.84,11.01 12.24,11.22 C11.64,11.43 11.22,11.34 10.59,10.95 C9.75,10.5 8.82,9.57 6.96,9.57 C5.28,9.6 3.9,10.41 3.9,11.46 C3.9,12.54 4.77,13.02 7.23,13.59 C11.76,14.64 13.32,16.05 13.32,18.78 C13.32,21.81 11.01,23.73 6.99,23.73" id="Shape"></path>
                            <path d="M21.09,17.28 L25.71,17.28 L23.4,11.97 L21.09,17.28 Z M31.05,21.72 C31.35,22.44 31.02,23.31 30.21,23.58 C29.43,23.91 28.53,23.55 28.2,22.8 L27,20.13 L19.8,20.13 L18.6,22.8 C18.36,23.34 17.79,23.7 17.19,23.7 C16.17,23.7 15.3,22.77 15.78,21.72 L21.99,7.65 C22.23,7.11 22.8,6.75 23.4,6.75 C24.03,6.75 24.57,7.11 24.81,7.65 L31.05,21.72 Z" id="Shape"></path>
                            <path d="M48.12,23.73 C47.43,23.73 46.86,23.34 46.68,22.74 L43.2,12.87 L39.72,22.74 C39.54,23.31 38.94,23.73 38.28,23.73 C37.59,23.73 37.05,23.34 36.84,22.74 L31.89,8.67 C31.62,7.92 32.04,7.08 32.85,6.84 C33.66,6.57 34.5,6.99 34.8,7.74 L38.31,17.73 L41.79,7.74 C42,7.17 42.57,6.75 43.23,6.75 C43.92,6.75 44.46,7.14 44.67,7.74 L48.15,17.73 L51.66,7.74 C51.93,6.99 52.8,6.6 53.61,6.84 C54.42,7.08 54.84,7.92 54.57,8.67 L49.62,22.74 C49.35,23.31 48.81,23.73 48.12,23.73" id="Shape"></path>
                            <path d="M71.22,7.11 C71.88,7.59 71.91,8.49 71.4,9.12 L65.61,16.59 L65.61,22.26 C65.61,23.07 64.92,23.7 64.08,23.7 C63.21,23.7 62.55,23.07 62.55,22.26 L62.55,16.59 L56.76,9.12 C56.28,8.49 56.31,7.59 56.94,7.11 C57.6,6.6 58.59,6.66 59.1,7.29 L64.08,13.83 L69.06,7.29 C69.57,6.66 70.59,6.6 71.22,7.11" id="Shape"></path>
                            <path d="M85.68,20.73 C86.55,20.73 87.21,21.36 87.21,22.17 C87.21,22.98 86.52,23.61 85.68,23.61 L76.11,23.61 C75.24,23.61 74.58,22.98 74.58,22.17 L74.58,8.34 C74.58,7.53 75.27,6.9 76.11,6.9 L85.14,6.9 C86.01,6.9 86.67,7.53 86.67,8.34 C86.67,9.15 85.98,9.78 85.14,9.78 L77.67,9.78 L77.67,13.8 L82.68,13.8 C83.55,13.8 84.21,14.43 84.21,15.24 C84.21,16.05 83.52,16.68 82.68,16.68 L77.67,16.68 L77.67,20.73 L85.68,20.73 Z" id="Shape"></path>
                            <path d="M101.52,11.79 C101.52,10.68 100.56,9.78 99.36,9.78 L93.51,9.78 L93.51,13.8 L99.36,13.8 C100.59,13.8 101.52,12.9 101.52,11.79 M100.59,16.56 L103.32,21.63 C103.68,22.32 103.38,23.19 102.6,23.55 C102.39,23.64 102.15,23.7 101.91,23.7 C101.37,23.7 100.8,23.4 100.53,22.89 L97.2,16.68 L93.54,16.68 L93.54,22.29 C93.54,23.1 92.85,23.73 92.01,23.73 C91.14,23.73 90.48,23.1 90.48,22.29 L90.48,8.34 C90.48,7.53 91.17,6.9 92.01,6.9 L99.39,6.9 C102.27,6.9 104.61,9.09 104.61,11.79 C104.61,14.1 102.9,16.05 100.59,16.56" id="Shape"></path>
                            <path d="M12.24,41.7 C13.11,41.7 13.77,42.33 13.77,43.14 C13.77,43.95 13.08,44.58 12.24,44.58 L2.64,44.58 C1.77,44.58 1.11,43.95 1.11,43.14 L1.11,29.31 C1.11,28.5 1.8,27.87 2.64,27.87 L11.67,27.87 C12.54,27.87 13.2,28.5 13.2,29.31 C13.2,30.12 12.51,30.75 11.67,30.75 L4.2,30.75 L4.2,34.8 L9.21,34.8 C10.08,34.8 10.74,35.43 10.74,36.24 C10.74,37.05 10.05,37.68 9.21,37.68 L4.2,37.68 L4.2,41.7 L12.24,41.7 Z" id="Shape"></path>
                            <path d="M30.21,27.87 C31.08,27.87 31.74,28.5 31.74,29.31 C31.74,30.12 31.05,30.75 30.21,30.75 L22.74,30.75 L22.74,34.8 L27.75,34.8 C28.62,34.8 29.28,35.43 29.28,36.24 C29.28,37.05 28.59,37.68 27.75,37.68 L22.74,37.68 L22.74,43.29 C22.74,44.1 22.05,44.73 21.21,44.73 C20.34,44.73 19.68,44.1 19.68,43.29 L19.68,29.34 C19.68,28.53 20.37,27.9 21.21,27.9 L30.21,27.9 L30.21,27.87 Z" id="Shape"></path>
                            <path d="M47.52,27.87 C48.39,27.87 49.05,28.5 49.05,29.31 C49.05,30.12 48.36,30.75 47.52,30.75 L40.05,30.75 L40.05,34.8 L45.06,34.8 C45.93,34.8 46.59,35.43 46.59,36.24 C46.59,37.05 45.9,37.68 45.06,37.68 L40.05,37.68 L40.05,43.29 C40.05,44.1 39.36,44.73 38.52,44.73 C37.65,44.73 36.99,44.1 36.99,43.29 L36.99,29.34 C36.99,28.53 37.68,27.9 38.52,27.9 L47.52,27.9 L47.52,27.87 Z" id="Shape"></path>
                            <path d="M65.37,41.7 C66.24,41.7 66.9,42.33 66.9,43.14 C66.9,43.95 66.21,44.58 65.37,44.58 L55.8,44.58 C54.93,44.58 54.27,43.95 54.27,43.14 L54.27,29.31 C54.27,28.5 54.96,27.87 55.8,27.87 L64.83,27.87 C65.7,27.87 66.36,28.5 66.36,29.31 C66.36,30.12 65.67,30.75 64.83,30.75 L57.36,30.75 L57.36,34.8 L62.37,34.8 C63.24,34.8 63.9,35.43 63.9,36.24 C63.9,37.05 63.21,37.68 62.37,37.68 L57.36,37.68 L57.36,41.7 L65.37,41.7 Z" id="Shape"></path>
                            <path d="M79.68,44.7 C74.61,44.7 70.74,40.86 70.74,36.21 C70.74,31.56 74.58,27.72 79.68,27.72 C82.86,27.72 85.83,29.4 87.42,31.89 C87.84,32.58 87.6,33.45 86.88,33.84 C86.13,34.23 85.2,34.02 84.78,33.33 C83.73,31.71 81.9,30.6 79.71,30.6 C76.47,30.6 73.86,33.12 73.86,36.21 C73.86,39.3 76.47,41.79 79.71,41.79 C81.9,41.79 83.73,40.68 84.78,39.06 C85.17,38.37 86.13,38.13 86.88,38.55 C87.63,38.94 87.87,39.81 87.42,40.5 C85.83,43.02 82.83,44.7 79.68,44.7" id="Shape"></path>
                            <path d="M103.11,27.87 C103.98,27.87 104.64,28.5 104.64,29.31 C104.64,30.12 103.95,30.75 103.11,30.75 L99.72,30.75 L99.72,43.26 C99.72,44.07 99.03,44.7 98.19,44.7 C97.32,44.7 96.66,44.07 96.66,43.26 L96.66,30.75 L93.27,30.75 C92.43,30.75 91.74,30.12 91.74,29.31 C91.74,28.5 92.46,27.87 93.27,27.87 L103.11,27.87 L103.11,27.87 Z" id="Shape"></path>
                            <path d="M120.63,44.04 C118.74,44.04 117.21,42.63 117.21,40.83 C117.21,39.06 118.74,37.62 120.63,37.62 C122.52,37.62 124.05,39.03 124.05,40.83 C124.05,42.6 122.52,44.04 120.63,44.04 M120.63,30.78 C118.74,30.78 117.21,29.37 117.21,27.57 C117.21,25.8 118.74,24.36 120.63,24.36 C122.52,24.36 124.05,25.77 124.05,27.57 C124.05,29.34 122.52,30.78 120.63,30.78" id="Shape"></path>
                            <path d="M138.12,42.54 C137.43,43.8 136.35,44.61 134.97,44.61 C133.2,44.61 131.82,43.2 131.82,41.64 C131.82,41.04 132,40.44 132.33,39.99 C132.57,39.69 136.89,33.24 136.89,22.44 C136.89,11.64 132.6,5.19 132.33,4.89 C132,4.41 131.82,3.81 131.82,3.24 C131.82,1.71 133.2,0.27 134.97,0.27 C136.35,0.27 137.43,1.11 138.12,2.34 C139.5,4.89 143.19,11.76 143.19,22.44 C143.19,33.12 139.53,39.99 138.12,42.54" id="Shape"></path>
                        </g>
                    </g>
                </g>
            </g>
        </g>
    </g>
</svg>