<?xml version="1.0" encoding="UTF-8"?>
<svg width="56px" height="56px" viewBox="0 0 56 56" version="1.1" xmlns="http://www.w3.org/2000/svg" xmlns:xlink="http://www.w3.org/1999/xlink">
    <defs></defs>
    <g id="Nagual---Dashboard" stroke="none" stroke-width="1" fill="none" fill-rule="evenodd">
        <g id="422-error-" transform="translate(-612.000000, -39.000000)" fill="#FFFFFF">
            <path d="M620.2005,86.7995 C614.912,81.511 612,74.4795 612,67 C612,59.5205 614.912,52.4901667 620.2005,47.2016667 C625.489,41.9131667 632.5205,39 640,39 C647.4795,39 654.511,41.9131667 659.7995,47.2016667 C665.088,52.4901667 668,59.5205 668,67 C668,74.4795 665.088,81.511 659.7995,86.7995 C654.511,92.088 647.4795,95 640,95 C632.5205,95 625.489,92.088 620.2005,86.7995 Z M623.680873,50.6808731 C619.231092,55.1318268 616.780488,61.0484528 616.780488,67.3414634 C616.780488,73.6344741 619.231092,79.5522726 623.680873,84.0020538 C628.131827,88.4518349 634.048453,90.902439 640.341463,90.902439 C646.634474,90.902439 652.5511,88.4518349 657.002054,84.0020538 C661.451835,79.5522726 663.902439,73.6344741 663.902439,67.3414634 C663.902439,61.0484528 661.451835,55.1318268 657.002054,50.6808731 C652.5511,46.2310919 646.634474,43.7804878 640.341463,43.7804878 C634.048453,43.7804878 628.131827,46.2310919 623.680873,50.6808731 Z M640,65.634178 C642.276423,65.6270192 643.414634,66.8344675 643.414634,69.2207291 L643.414634,76.3795136 C643.414634,78.7657752 641.601463,79.9756098 640,79.9756098 C638.398537,79.9756098 636.585366,78.7657752 636.585366,76.3795136 L636.585366,69.2207291 C636.585366,66.8344675 637.723577,65.6413368 640,65.634178 Z M654.341463,65.1526338 L654.341463,77.8724285 C654.341463,80.1851184 652.55063,81.3414634 650.841463,81.3414634 C649.132297,81.3414634 647.341463,80.1851184 647.341463,77.8724285 L647.341463,65.1526338 C647.341463,61.6558466 643.869463,58.2064695 640.341463,58.2064695 C636.813463,58.2064695 633.341463,61.6835989 633.341463,65.1526338 L633.341463,77.8724285 C633.341463,80.1851184 632.174797,81.3414634 629.841463,81.3414634 C627.50813,81.3414634 626.341463,80.1851184 626.341463,77.8724285 L626.341463,65.1526338 C626.341463,58.2122512 633.32163,51.2926829 640.341463,51.2926829 C647.421963,51.2926829 654.341463,58.2145639 654.341463,65.1526338 Z" id="nagual-iso"></path>
        </g>
    </g>
</svg>