<?xml version="1.0" encoding="UTF-8"?>
<svg width="68px" height="60px" viewBox="0 0 68 60" version="1.1" xmlns="http://www.w3.org/2000/svg" xmlns:xlink="http://www.w3.org/1999/xlink">
    <defs>
        <rect id="path-1" x="0" y="0" width="60" height="60" rx="30"></rect>
    </defs>
    <g id="Landing-page" stroke="none" stroke-width="1" fill="none" fill-rule="evenodd">
        <g id="Landing-" transform="translate(-746.000000, -1162.000000)">
            <g id="section2" transform="translate(100.000000, 1162.000000)">
                <g id="f4" transform="translate(551.333333, 0.000000)">
                    <g id="Group-4" transform="translate(95.000000, 0.000000)">
                        <g id="Rectangle-3-Copy-3">
                            <use fill="#3023AE" fill-rule="evenodd" xlink:href="#path-1"></use>
                            <rect stroke="#3023AE" stroke-width="1" x="0.5" y="0.5" width="59" height="59" rx="29.5"></rect>
                        </g>
                        <g id="Apps" transform="translate(27.000000, 14.000000)" fill="#FF7411">
                            <path d="M3.23805128,1.736 C2.41035897,1.736 1.73651282,2.40984615 1.73651282,3.23753846 L1.73651282,13.1688205 C1.73651282,13.9975385 2.41035897,14.6713846 3.23805128,14.6713846 L13.1693333,14.6713846 C13.9970256,14.6713846 14.6708718,13.9975385 14.6708718,13.1688205 L14.6708718,3.23753846 C14.6708718,2.40984615 13.9970256,1.736 13.1693333,1.736 L3.23805128,1.736 Z M13.1693333,16.4067692 L3.23805128,16.4067692 C1.45241026,16.4067692 0.000102564103,14.9544615 0.000102564103,13.1688205 L0.000102564103,3.23753846 C0.000102564103,1.45292308 1.45241026,-0.00041025641 3.23805128,-0.00041025641 L13.1693333,-0.00041025641 C14.9549744,-0.00041025641 16.4072821,1.45292308 16.4072821,3.23753846 L16.4072821,13.1688205 C16.4072821,14.9544615 14.9549744,16.4067692 13.1693333,16.4067692 L13.1693333,16.4067692 Z" id="Fill-1"></path>
                            <path d="M26.5430769,1.736 C25.7153846,1.736 25.0415385,2.40984615 25.0415385,3.23753846 L25.0415385,13.1688205 C25.0415385,13.9975385 25.7153846,14.6713846 26.5430769,14.6713846 L36.474359,14.6713846 C37.3020513,14.6713846 37.9758974,13.9975385 37.9758974,13.1688205 L37.9758974,3.23753846 C37.9758974,2.40984615 37.3020513,1.736 36.474359,1.736 L26.5430769,1.736 Z M36.474359,16.4067692 L26.5430769,16.4067692 C24.7574359,16.4067692 23.3051282,14.9544615 23.3051282,13.1688205 L23.3051282,3.23753846 C23.3051282,1.45292308 24.7574359,-0.00041025641 26.5430769,-0.00041025641 L36.474359,-0.00041025641 C38.26,-0.00041025641 39.7123077,1.45292308 39.7123077,3.23753846 L39.7123077,13.1688205 C39.7123077,14.9544615 38.26,16.4067692 36.474359,16.4067692 L36.474359,16.4067692 Z" id="Fill-3"></path>
                            <path d="M3.23805128,24.4494359 C2.41035897,24.4494359 1.73651282,25.1232821 1.73651282,25.9509744 L1.73651282,35.8822564 C1.73651282,36.7109744 2.41035897,37.3848205 3.23805128,37.3848205 L13.1693333,37.3848205 C13.9970256,37.3848205 14.6708718,36.7109744 14.6708718,35.8822564 L14.6708718,25.9509744 C14.6708718,25.1232821 13.9970256,24.4494359 13.1693333,24.4494359 L3.23805128,24.4494359 Z M13.1693333,39.1202051 L3.23805128,39.1202051 C1.45241026,39.1202051 0.000102564103,37.6678974 0.000102564103,35.8822564 L0.000102564103,25.9509744 C0.000102564103,24.166359 1.45241026,22.7130256 3.23805128,22.7130256 L13.1693333,22.7130256 C14.9549744,22.7130256 16.4072821,24.166359 16.4072821,25.9509744 L16.4072821,35.8822564 C16.4072821,37.6678974 14.9549744,39.1202051 13.1693333,39.1202051 L13.1693333,39.1202051 Z" id="Fill-6"></path>
                            <path d="M26.5430769,24.4494359 C25.7153846,24.4494359 25.0415385,25.1232821 25.0415385,25.9509744 L25.0415385,35.8822564 C25.0415385,36.7109744 25.7153846,37.3848205 26.5430769,37.3848205 L36.474359,37.3848205 C37.3020513,37.3848205 37.9758974,36.7109744 37.9758974,35.8822564 L37.9758974,25.9509744 C37.9758974,25.1232821 37.3020513,24.4494359 36.474359,24.4494359 L26.5430769,24.4494359 Z M36.474359,39.1202051 L26.5430769,39.1202051 C24.7574359,39.1202051 23.3051282,37.6678974 23.3051282,35.8822564 L23.3051282,25.9509744 C23.3051282,24.166359 24.7574359,22.7130256 26.5430769,22.7130256 L36.474359,22.7130256 C38.26,22.7130256 39.7123077,24.166359 39.7123077,25.9509744 L39.7123077,35.8822564 C39.7123077,37.6678974 38.26,39.1202051 36.474359,39.1202051 L36.474359,39.1202051 Z" id="Fill-8"></path>
                        </g>
                    </g>
                </g>
            </g>
        </g>
    </g>
</svg>