<?xml version="1.0" encoding="UTF-8"?>
<svg width="65px" height="60px" viewBox="0 0 65 60" version="1.1" xmlns="http://www.w3.org/2000/svg" xmlns:xlink="http://www.w3.org/1999/xlink">
    <defs>
        <rect id="path-1" x="0" y="0" width="60" height="60" rx="30"></rect>
    </defs>
    <g id="Landing-page" stroke="none" stroke-width="1" fill="none" fill-rule="evenodd">
        <g id="Landing-" transform="translate(-1022.000000, -1162.000000)">
            <g id="section2" transform="translate(100.000000, 1162.000000)">
                <g id="f2" transform="translate(827.000000, 0.000000)">
                    <g id="Group-5" transform="translate(95.000000, 0.000000)">
                        <g id="Rectangle-3-Copy">
                            <use fill="#3023AE" fill-rule="evenodd" xlink:href="#path-1"></use>
                            <rect stroke="#3023AE" stroke-width="1" x="0.5" y="0.5" width="59" height="59" rx="29.5"></rect>
                        </g>
                        <path d="M51.9175258,12 L51.9175258,12 C59.0864393,12 64.9230769,17.814908 64.9230769,24.964385 C64.9230769,25.1550377 64.8913561,25.313915 64.8913561,25.5045677 L64.8913561,25.6316695 C64.8913561,32.463392 59.3402062,38.0240964 52.520222,38.0240964 C51.7906423,38.0240964 51.2196669,37.4521382 51.2196669,36.7213028 C51.2196669,35.9904674 51.7906423,35.4185092 52.520222,35.4185092 C57.8493259,35.4185092 62.1950833,31.128823 62.2902458,25.8223223 L62.2902458,25.5681186 L62.2902458,25.3456905 C62.3219667,25.2185886 62.3219667,25.0914868 62.3219667,24.964385 C62.3219667,19.2130279 57.6590008,14.5420363 51.9175258,14.5420363 C46.3029342,14.5420363 41.7668517,18.9588243 41.5448057,24.5513041 C41.5130849,25.0597114 41.2275971,25.5045677 40.7835052,25.6952204 C40.3394132,25.8858732 39.8318795,25.8223223 39.4512292,25.5363432 C38.4044409,24.7419568 37.1673275,24.3288759 35.8350515,24.3924269 C32.9484536,24.5195287 30.6011102,27.1251158 30.6011102,30.1437839 C30.6011102,33.0671256 32.9801745,35.4185092 35.8667724,35.4185092 C36.5963521,35.4185092 37.1673275,35.9904674 37.1673275,36.7213028 C37.1673275,37.4521382 36.5963521,38.0240964 35.8667724,38.0240964 C31.5210151,38.0240964 28,34.4970211 28,30.1437839 C28,25.6952204 31.3941316,22.0092678 35.7081681,21.8503906 C36.9135607,21.7868397 38.0872324,22.0092678 39.1974623,22.4541242 C40.371134,16.4485635 45.6367962,12 51.9175258,12 Z M45.668517,37.001986 L54.0428232,45.3907057 C54.5503569,45.8991129 54.5503569,46.7252747 54.0428232,47.233682 C53.7890563,47.4878856 53.4401269,47.6149874 53.1229183,47.6149874 C52.7739889,47.6149874 52.4567803,47.4878856 52.2030135,47.233682 L46.0491673,41.069244 L46.0491673,50.6972064 C46.0491673,51.4280418 45.4781919,52 44.7486122,52 C44.0190325,52 43.4480571,51.4280418 43.4480571,50.6972064 L43.4480571,41.069244 L37.2624901,47.2654574 C36.7549564,47.7738647 35.9302141,47.7738647 35.4226804,47.2654574 C34.9151467,46.7570502 34.9151467,45.9308884 35.4226804,45.4224811 L43.8287074,37.001986 C44.3362411,36.4935787 45.1609833,36.4935787 45.668517,37.001986 Z" id="upload" fill="#FF7411"></path>
                    </g>
                </g>
            </g>
        </g>
    </g>
</svg>