<?xml version="1.0" encoding="UTF-8"?>
<svg width="70px" height="60px" viewBox="0 0 70 60" version="1.1" xmlns="http://www.w3.org/2000/svg" xmlns:xlink="http://www.w3.org/1999/xlink">
    <defs>
        <rect id="path-1" x="0" y="0" width="60" height="60" rx="30"></rect>
    </defs>
    <g id="Landing" stroke="none" stroke-width="1" fill="none" fill-rule="evenodd">
        <g id="Landing--thx-suscribe" transform="translate(-195.000000, -1162.000000)">
            <g id="section2" transform="translate(100.000000, 1162.000000)">
                <g id="f1">
                    <g id="import-icon" transform="translate(95.000000, 0.000000)">
                        <g id="Rectangle-3">
                            <use fill="#3023AE" fill-rule="evenodd" xlink:href="#path-1"></use>
                            <rect stroke="#3023AE" stroke-width="1" x="0.5" y="0.5" width="59" height="59" rx="29.5"></rect>
                        </g>
                        <g id="Archive" transform="translate(31.000000, 12.000000)">
                            <path d="M37.8752486,20.5245078 L33.1969326,15.5127775 C33.0342793,15.337802 32.8014817,15.2380952 32.5564852,15.2380952 L30.0170603,15.2380952 L30.0170603,16.8930317 L32.1732333,16.8930317 L35.3063428,20.2498254 L2.78889532,20.2498254 L5.9220048,16.8930317 L8.08732706,16.8930317 C8.07817781,16.3387795 8.10460898,15.7923474 8.10867531,15.2380952 L5.53875293,15.2380952 C5.29375637,15.2380952 5.06095882,15.337802 4.8983055,15.5127775 L0.219989523,20.5245078 C-0.00670853547,20.7679095 -0.0636371958,21.1159056 0.0746181221,21.4140483 C0.21287344,21.712191 0.520898156,21.9047619 0.860436951,21.9047619 L37.2348011,21.9047619 C37.5743399,21.9047619 37.8823647,21.712191 38.02062,21.4140483 C38.1588753,21.1159056 38.1019466,20.7679095 37.8752486,20.5245078 L37.8752486,20.5245078 Z" id="Fill-1" fill="#F28821"></path>
                            <path d="M1.72106629,21.7756568 L1.72106629,37.6128795 C1.72106629,37.9506005 1.98740968,38.225392 2.31474775,38.225392 L35.7815069,38.225392 C36.108845,38.225392 36.3751884,37.9506005 36.3751884,37.6128795 L36.3751884,21.7756568 L1.72106629,21.7756568 Z M35.7815069,40 L2.31474775,40 C1.03894256,40 0,38.929152 0,37.6128795 L0,20.8883528 C0,20.3975038 0.385283003,20 0.861041433,20 L37.2352132,20 C37.7099551,20 38.0952381,20.3975038 38.0952381,20.8883528 L38.0952381,37.6128795 C38.0952381,38.929152 37.0573121,40 35.7815069,40 L35.7815069,40 Z" id="Fill-3" fill="#FF7411"></path>
                            <path d="M8.41008277,20.167201 L28.7338041,20.167201 L28.7338041,1.73653456 L8.41008277,1.73653456 L8.41008277,20.167201 Z M29.6049973,21.9047619 L7.53888961,21.9047619 C7.05695297,21.9047619 6.66666667,21.5157864 6.66666667,21.0354683 L6.66666667,0.868267281 C6.66666667,0.388975531 7.05695297,0 7.53888961,0 L29.6049973,0 C30.086934,0 30.4761905,0.388975531 30.4761905,0.868267281 L30.4761905,21.0354683 C30.4761905,21.5157864 30.086934,21.9047619 29.6049973,21.9047619 L29.6049973,21.9047619 Z" id="Fill-6" fill="#FF7411"></path>
                            <path d="M19.047619,17.1428571 C18.8264768,17.1428571 18.6063536,17.0571122 18.4382039,16.8866555 L13.5863221,11.9692366 C13.2490037,11.6272901 13.2490037,11.0735639 13.5863221,10.7326504 C13.9236405,10.3907038 14.468853,10.3907038 14.8061714,10.7326504 L19.047619,15.0322927 L23.2890667,10.7326504 C23.6263851,10.3907038 24.1715976,10.3907038 24.508916,10.7326504 C24.8462344,11.0735639 24.8462344,11.6272901 24.508916,11.9692366 L19.6570342,16.8866555 C19.4888845,17.0571122 19.2687613,17.1428571 19.047619,17.1428571" id="Fill-8" fill="#FF7411"></path>
                            <path d="M19.047619,16.1904762 C18.5218958,16.1904762 18.0952381,15.790529 18.0952381,15.297718 L18.0952381,5.65571824 C18.0952381,5.161852 18.5218958,4.76190476 19.047619,4.76190476 C19.5733423,4.76190476 20,5.161852 20,5.65571824 L20,15.297718 C20,15.790529 19.5733423,16.1904762 19.047619,16.1904762" id="Fill-9" fill="#FF7411"></path>
                            <path d="M24.8182654,27.6190476 L13.2780318,27.6190476 C12.782361,27.6190476 12.3809524,27.192642 12.3809524,26.6672292 C12.3809524,26.1406914 12.782361,25.7142857 13.2780318,25.7142857 L24.8182654,25.7142857 C25.3128771,25.7142857 25.7142857,26.1406914 25.7142857,26.6672292 C25.7142857,27.192642 25.3128771,27.6190476 24.8182654,27.6190476" id="Fill-10" fill="#FF7411"></path>
                        </g>
                    </g>
                </g>
            </g>
        </g>
    </g>
</svg>