<?xml version="1.0" encoding="UTF-8"?>
<svg width="71px" height="60px" viewBox="0 0 71 60" version="1.1" xmlns="http://www.w3.org/2000/svg" xmlns:xlink="http://www.w3.org/1999/xlink">
    <defs>
        <rect id="path-1" x="0" y="0" width="60" height="60" rx="30"></rect>
    </defs>
    <g id="Landing-page" stroke="none" stroke-width="1" fill="none" fill-rule="evenodd">
        <g id="Landing-" transform="translate(-470.000000, -1162.000000)">
            <g id="section2" transform="translate(100.000000, 1162.000000)">
                <g id="f3" transform="translate(275.666667, 0.000000)">
                    <g id="Group-3" transform="translate(95.000000, 0.000000)">
                        <g id="Rectangle-3-Copy-2">
                            <use fill="#3023AE" fill-rule="evenodd" xlink:href="#path-1"></use>
                            <rect stroke="#3023AE" stroke-width="1" x="0.5" y="0.5" width="59" height="59" rx="29.5"></rect>
                        </g>
                        <g id="Columns" transform="translate(50.000000, 33.000000) rotate(90.000000) translate(-50.000000, -33.000000) translate(31.000000, 13.000000)" fill="#FF7411">
                            <path d="M35.6447179,34.3964103 C35.6447179,36.3697436 34.0385641,37.9758974 32.0652308,37.9758974 L25.4888205,37.9758974 L25.4888205,1.73589744 L32.0652308,1.73589744 C34.0385641,1.73589744 35.6447179,3.34205128 35.6447179,5.31538462 L35.6447179,34.3964103 Z M13.6283077,37.9758974 L23.7524103,37.9758974 L23.7524103,1.73589744 L13.6283077,1.73589744 L13.6283077,37.9758974 Z M1.736,34.3964103 L1.736,5.31538462 C1.736,3.34205128 3.34215385,1.73589744 5.31548718,1.73589744 L11.8918974,1.73589744 L11.8918974,37.9758974 L5.31548718,37.9758974 C3.34215385,37.9758974 1.736,36.3697436 1.736,34.3964103 L1.736,34.3964103 Z M32.0652308,0.000512820513 L24.6201026,0.000512820513 L12.7606154,0.000512820513 L5.31548718,0.000512820513 C2.38420513,0.000512820513 -0.00041025641,2.38410256 -0.00041025641,5.31538462 L-0.00041025641,34.3964103 C-0.00041025641,37.3276923 2.38420513,39.7123077 5.31548718,39.7123077 L12.7606154,39.7123077 L24.6201026,39.7123077 L32.0652308,39.7123077 C34.9965128,39.7123077 37.3811282,37.3276923 37.3811282,34.3964103 L37.3811282,5.31538462 C37.3811282,2.38410256 34.9965128,0.000512820513 32.0652308,0.000512820513 L32.0652308,0.000512820513 Z" id="Fill-1"></path>
                        </g>
                    </g>
                </g>
            </g>
        </g>
    </g>
</svg>